<svg xmlns="http://www.w3.org/2000/svg" width="190" height="24" viewBox="0 0 190 24" fill="none">
<g clip-path="url(#clip0_2_6)">
<path fill-rule="evenodd" clip-rule="evenodd" d="M14.6667 7.75757C14.6667 8.6703 13.2795 9.46523 11.23 9.8788C13.2795 10.2923 14.6667 11.0873 14.6667 12C14.6667 12.9127 13.2795 13.7077 11.23 14.1212C13.2795 14.5348 14.6667 15.3297 14.6667 16.2424C14.6667 17.5813 11.6819 18.6667 8 18.6667C4.3181 18.6667 1.33333 17.5813 1.33333 16.2424C1.33333 15.3297 2.72048 14.5348 4.77 14.1212C2.72048 13.7077 1.33333 12.9127 1.33333 12C1.33333 11.0873 2.72048 10.2923 4.77 9.8788C2.72048 9.46523 1.33333 8.6703 1.33333 7.75757C1.33333 6.4187 4.3181 5.33333 8 5.33333C11.6819 5.33333 14.6667 6.4187 14.6667 7.75757Z" fill="#0D171C"/>
</g>
<path d="M33.584 18.5V5.9H39.254C40.058 5.9 40.784 6.074 41.432 6.422C42.092 6.77 42.608 7.25 42.98 7.862C43.352 8.462 43.538 9.146 43.538 9.914C43.538 10.706 43.352 11.42 42.98 12.056C42.608 12.68 42.098 13.172 41.45 13.532C40.802 13.892 40.07 14.072 39.254 14.072H36.5V18.5H33.584ZM40.568 18.5L37.364 12.812L40.496 12.362L44.06 18.5H40.568ZM36.5 11.732H38.984C39.296 11.732 39.566 11.666 39.794 11.534C40.034 11.39 40.214 11.192 40.334 10.94C40.466 10.688 40.532 10.4 40.532 10.076C40.532 9.752 40.46 9.47 40.316 9.23C40.172 8.978 39.962 8.786 39.686 8.654C39.422 8.522 39.098 8.456 38.714 8.456H36.5V11.732ZM50.1191 18.68C49.0631 18.68 48.1451 18.47 47.3651 18.05C46.5851 17.618 45.9791 17.036 45.5471 16.304C45.1151 15.56 44.8991 14.714 44.8991 13.766C44.8991 13.034 45.0191 12.362 45.2591 11.75C45.4991 11.138 45.8351 10.61 46.2671 10.166C46.6991 9.71 47.2091 9.362 47.7971 9.122C48.3971 8.87 49.0511 8.744 49.7591 8.744C50.4311 8.744 51.0431 8.864 51.5951 9.104C52.1591 9.344 52.6451 9.68 53.0531 10.112C53.4611 10.544 53.7731 11.054 53.9891 11.642C54.2051 12.23 54.3011 12.872 54.2771 13.568L54.2591 14.342H46.6451L46.2311 12.722H51.9191L51.6131 13.064V12.704C51.5891 12.404 51.4931 12.14 51.3251 11.912C51.1691 11.672 50.9591 11.486 50.6951 11.354C50.4311 11.222 50.1311 11.156 49.7951 11.156C49.3271 11.156 48.9251 11.252 48.5891 11.444C48.2651 11.624 48.0191 11.894 47.8511 12.254C47.6831 12.602 47.5991 13.034 47.5991 13.55C47.5991 14.078 47.7071 14.54 47.9231 14.936C48.1511 15.32 48.4751 15.62 48.8951 15.836C49.3271 16.052 49.8371 16.16 50.4251 16.16C50.8331 16.16 51.1931 16.1 51.5051 15.98C51.8291 15.86 52.1771 15.656 52.5491 15.368L53.8991 17.276C53.5271 17.6 53.1311 17.864 52.7111 18.068C52.2911 18.272 51.8591 18.422 51.4151 18.518C50.9831 18.626 50.5511 18.68 50.1191 18.68ZM59.334 18.68C58.398 18.68 57.57 18.53 56.85 18.23C56.142 17.93 55.578 17.528 55.158 17.024L56.904 15.512C57.276 15.884 57.696 16.16 58.164 16.34C58.632 16.508 59.076 16.592 59.496 16.592C59.664 16.592 59.814 16.574 59.946 16.538C60.078 16.502 60.186 16.454 60.27 16.394C60.366 16.322 60.438 16.244 60.486 16.16C60.534 16.064 60.558 15.956 60.558 15.836C60.558 15.596 60.45 15.41 60.234 15.278C60.126 15.218 59.946 15.146 59.694 15.062C59.442 14.978 59.118 14.882 58.722 14.774C58.158 14.63 57.666 14.462 57.246 14.27C56.838 14.066 56.502 13.832 56.238 13.568C55.998 13.316 55.812 13.04 55.68 12.74C55.548 12.428 55.482 12.08 55.482 11.696C55.482 11.252 55.584 10.85 55.788 10.49C56.004 10.13 56.286 9.818 56.634 9.554C56.994 9.29 57.402 9.092 57.858 8.96C58.326 8.816 58.806 8.744 59.298 8.744C59.826 8.744 60.33 8.804 60.81 8.924C61.29 9.044 61.734 9.212 62.142 9.428C62.562 9.644 62.934 9.902 63.258 10.202L61.746 11.894C61.53 11.69 61.284 11.51 61.008 11.354C60.744 11.186 60.468 11.054 60.18 10.958C59.892 10.862 59.628 10.814 59.388 10.814C59.208 10.814 59.046 10.832 58.902 10.868C58.77 10.892 58.656 10.94 58.56 11.012C58.464 11.072 58.392 11.15 58.344 11.246C58.296 11.33 58.272 11.432 58.272 11.552C58.272 11.672 58.302 11.786 58.362 11.894C58.434 12.002 58.53 12.092 58.65 12.164C58.77 12.236 58.962 12.32 59.226 12.416C59.49 12.5 59.85 12.608 60.306 12.74C60.87 12.896 61.356 13.07 61.764 13.262C62.172 13.454 62.496 13.682 62.736 13.946C62.928 14.15 63.072 14.39 63.168 14.666C63.264 14.93 63.312 15.218 63.312 15.53C63.312 16.142 63.138 16.688 62.79 17.168C62.454 17.636 61.986 18.008 61.386 18.284C60.786 18.548 60.102 18.68 59.334 18.68ZM69.5781 18.68C68.5221 18.68 67.6041 18.47 66.8241 18.05C66.0441 17.618 65.4381 17.036 65.0061 16.304C64.5741 15.56 64.3581 14.714 64.3581 13.766C64.3581 13.034 64.4781 12.362 64.7181 11.75C64.9581 11.138 65.2941 10.61 65.7261 10.166C66.1581 9.71 66.6681 9.362 67.2561 9.122C67.8561 8.87 68.5101 8.744 69.2181 8.744C69.8901 8.744 70.5021 8.864 71.0541 9.104C71.6181 9.344 72.1041 9.68 72.5121 10.112C72.9201 10.544 73.2321 11.054 73.4481 11.642C73.6641 12.23 73.7601 12.872 73.7361 13.568L73.7181 14.342H66.1041L65.6901 12.722H71.3781L71.0721 13.064V12.704C71.0481 12.404 70.9521 12.14 70.7841 11.912C70.6281 11.672 70.4181 11.486 70.1541 11.354C69.8901 11.222 69.5901 11.156 69.2541 11.156C68.7861 11.156 68.3841 11.252 68.0481 11.444C67.7241 11.624 67.4781 11.894 67.3101 12.254C67.1421 12.602 67.0581 13.034 67.0581 13.55C67.0581 14.078 67.1661 14.54 67.3821 14.936C67.6101 15.32 67.9341 15.62 68.3541 15.836C68.7861 16.052 69.2961 16.16 69.8841 16.16C70.2921 16.16 70.6521 16.1 70.9641 15.98C71.2881 15.86 71.6361 15.656 72.0081 15.368L73.3581 17.276C72.9861 17.6 72.5901 17.864 72.1701 18.068C71.7501 18.272 71.3181 18.422 70.8741 18.518C70.4421 18.626 70.0101 18.68 69.5781 18.68ZM79.099 18.662C78.295 18.662 77.575 18.452 76.939 18.032C76.315 17.6 75.817 17.012 75.445 16.268C75.073 15.512 74.887 14.66 74.887 13.712C74.887 12.74 75.073 11.882 75.445 11.138C75.817 10.394 76.327 9.812 76.975 9.392C77.623 8.96 78.361 8.744 79.189 8.744C79.645 8.744 80.059 8.81 80.431 8.942C80.815 9.074 81.151 9.26 81.439 9.5C81.727 9.728 81.973 9.998 82.177 10.31C82.381 10.61 82.531 10.934 82.627 11.282L82.033 11.21V8.942H84.895V18.5H81.979V16.196L82.627 16.178C82.531 16.514 82.375 16.832 82.159 17.132C81.943 17.432 81.679 17.696 81.367 17.924C81.055 18.152 80.707 18.332 80.323 18.464C79.939 18.596 79.531 18.662 79.099 18.662ZM79.891 16.232C80.335 16.232 80.719 16.13 81.043 15.926C81.367 15.722 81.619 15.434 81.799 15.062C81.979 14.678 82.069 14.228 82.069 13.712C82.069 13.196 81.979 12.752 81.799 12.38C81.619 11.996 81.367 11.702 81.043 11.498C80.719 11.282 80.335 11.174 79.891 11.174C79.459 11.174 79.081 11.282 78.757 11.498C78.445 11.702 78.199 11.996 78.019 12.38C77.839 12.752 77.749 13.196 77.749 13.712C77.749 14.228 77.839 14.678 78.019 15.062C78.199 15.434 78.445 15.722 78.757 15.926C79.081 16.13 79.459 16.232 79.891 16.232ZM87.4362 18.5V8.942H90.1722L90.2982 12.056L89.7582 11.462C89.9022 10.946 90.1362 10.484 90.4602 10.076C90.7962 9.668 91.1862 9.344 91.6302 9.104C92.0742 8.864 92.5482 8.744 93.0522 8.744C93.2682 8.744 93.4662 8.762 93.6462 8.798C93.8382 8.834 94.0122 8.876 94.1682 8.924L93.3762 12.11C93.2442 12.026 93.0642 11.96 92.8362 11.912C92.6202 11.852 92.3922 11.822 92.1522 11.822C91.8882 11.822 91.6422 11.87 91.4142 11.966C91.1862 12.05 90.9942 12.176 90.8382 12.344C90.6822 12.512 90.5562 12.71 90.4602 12.938C90.3762 13.166 90.3342 13.424 90.3342 13.712V18.5H87.4362ZM99.4173 18.68C98.4933 18.68 97.6653 18.464 96.9333 18.032C96.2013 17.6 95.6193 17.012 95.1873 16.268C94.7673 15.512 94.5573 14.66 94.5573 13.712C94.5573 12.764 94.7673 11.918 95.1873 11.174C95.6193 10.418 96.2013 9.824 96.9333 9.392C97.6653 8.96 98.4933 8.744 99.4173 8.744C100.269 8.744 101.049 8.894 101.757 9.194C102.477 9.494 103.047 9.914 103.467 10.454L101.901 12.326C101.733 12.134 101.535 11.954 101.307 11.786C101.079 11.618 100.827 11.486 100.551 11.39C100.275 11.294 99.9873 11.246 99.6873 11.246C99.2313 11.246 98.8293 11.354 98.4813 11.57C98.1333 11.774 97.8633 12.062 97.6713 12.434C97.4793 12.806 97.3833 13.232 97.3833 13.712C97.3833 14.168 97.4793 14.582 97.6713 14.954C97.8753 15.326 98.1513 15.62 98.4993 15.836C98.8473 16.052 99.2433 16.16 99.6873 16.16C99.9993 16.16 100.287 16.124 100.551 16.052C100.815 15.968 101.055 15.848 101.271 15.692C101.499 15.536 101.709 15.344 101.901 15.116L103.449 17.006C103.041 17.522 102.471 17.93 101.739 18.23C101.019 18.53 100.245 18.68 99.4173 18.68ZM105.032 18.5V5.18H107.858V10.886L107.282 11.102C107.414 10.67 107.648 10.28 107.984 9.932C108.332 9.572 108.746 9.284 109.226 9.068C109.706 8.852 110.21 8.744 110.738 8.744C111.458 8.744 112.064 8.894 112.556 9.194C113.048 9.482 113.42 9.92 113.672 10.508C113.924 11.084 114.05 11.792 114.05 12.632V18.5H111.152V12.866C111.152 12.482 111.098 12.164 110.99 11.912C110.882 11.66 110.714 11.474 110.486 11.354C110.27 11.222 110 11.162 109.676 11.174C109.424 11.174 109.19 11.216 108.974 11.3C108.758 11.372 108.572 11.486 108.416 11.642C108.26 11.786 108.134 11.954 108.038 12.146C107.954 12.338 107.912 12.548 107.912 12.776V18.5H106.49C106.154 18.5 105.866 18.5 105.626 18.5C105.386 18.5 105.188 18.5 105.032 18.5ZM122.488 18.68C121.54 18.68 120.664 18.524 119.86 18.212C119.068 17.888 118.378 17.438 117.79 16.862C117.202 16.274 116.746 15.584 116.422 14.792C116.11 13.988 115.954 13.106 115.954 12.146C115.954 11.21 116.122 10.346 116.458 9.554C116.794 8.762 117.256 8.078 117.844 7.502C118.444 6.914 119.146 6.458 119.95 6.134C120.766 5.81 121.654 5.648 122.614 5.648C123.214 5.648 123.802 5.726 124.378 5.882C124.954 6.038 125.488 6.272 125.98 6.584C126.484 6.884 126.916 7.244 127.276 7.664L125.404 9.806C125.152 9.542 124.882 9.314 124.594 9.122C124.318 8.918 124.012 8.762 123.676 8.654C123.34 8.546 122.98 8.492 122.596 8.492C122.116 8.492 121.66 8.582 121.228 8.762C120.808 8.93 120.436 9.176 120.112 9.5C119.8 9.812 119.554 10.196 119.374 10.652C119.194 11.108 119.104 11.618 119.104 12.182C119.104 12.734 119.194 13.238 119.374 13.694C119.554 14.138 119.806 14.522 120.13 14.846C120.454 15.17 120.844 15.416 121.3 15.584C121.768 15.752 122.284 15.836 122.848 15.836C123.232 15.836 123.598 15.782 123.946 15.674C124.294 15.566 124.612 15.422 124.9 15.242C125.2 15.05 125.464 14.834 125.692 14.594L127.168 16.934C126.868 17.27 126.466 17.57 125.962 17.834C125.47 18.098 124.918 18.308 124.306 18.464C123.706 18.608 123.1 18.68 122.488 18.68ZM133.456 18.68C132.46 18.68 131.572 18.464 130.792 18.032C130.024 17.6 129.412 17.012 128.956 16.268C128.512 15.524 128.29 14.672 128.29 13.712C128.29 12.752 128.512 11.9 128.956 11.156C129.412 10.412 130.024 9.824 130.792 9.392C131.572 8.96 132.46 8.744 133.456 8.744C134.452 8.744 135.334 8.96 136.102 9.392C136.882 9.824 137.494 10.412 137.938 11.156C138.382 11.9 138.604 12.752 138.604 13.712C138.604 14.672 138.382 15.524 137.938 16.268C137.494 17.012 136.882 17.6 136.102 18.032C135.334 18.464 134.452 18.68 133.456 18.68ZM133.456 16.196C133.888 16.196 134.272 16.088 134.608 15.872C134.944 15.656 135.208 15.362 135.4 14.99C135.592 14.618 135.682 14.192 135.67 13.712C135.682 13.232 135.592 12.806 135.4 12.434C135.208 12.05 134.944 11.75 134.608 11.534C134.272 11.318 133.888 11.21 133.456 11.21C133.024 11.21 132.634 11.318 132.286 11.534C131.95 11.75 131.686 12.05 131.494 12.434C131.302 12.806 131.212 13.232 131.224 13.712C131.212 14.192 131.302 14.618 131.494 14.99C131.686 15.362 131.95 15.656 132.286 15.872C132.634 16.088 133.024 16.196 133.456 16.196ZM140.487 18.5V8.942H143.223L143.313 10.886L142.737 11.102C142.869 10.67 143.103 10.28 143.439 9.932C143.787 9.572 144.201 9.284 144.681 9.068C145.161 8.852 145.665 8.744 146.193 8.744C146.913 8.744 147.519 8.894 148.011 9.194C148.503 9.482 148.875 9.92 149.127 10.508C149.379 11.084 149.505 11.792 149.505 12.632V18.5H146.607V12.866C146.607 12.482 146.553 12.164 146.445 11.912C146.337 11.66 146.169 11.474 145.941 11.354C145.725 11.222 145.455 11.162 145.131 11.174C144.879 11.174 144.645 11.216 144.429 11.3C144.213 11.372 144.027 11.486 143.871 11.642C143.715 11.786 143.589 11.954 143.493 12.146C143.409 12.338 143.367 12.548 143.367 12.776V18.5H141.945C141.609 18.5 141.321 18.5 141.081 18.5C140.841 18.5 140.643 18.5 140.487 18.5ZM151.913 18.5V8.942H154.649L154.739 10.886L154.163 11.102C154.295 10.67 154.529 10.28 154.865 9.932C155.213 9.572 155.627 9.284 156.107 9.068C156.587 8.852 157.091 8.744 157.619 8.744C158.339 8.744 158.945 8.894 159.437 9.194C159.929 9.482 160.301 9.92 160.553 10.508C160.805 11.084 160.931 11.792 160.931 12.632V18.5H158.033V12.866C158.033 12.482 157.979 12.164 157.871 11.912C157.763 11.66 157.595 11.474 157.367 11.354C157.151 11.222 156.881 11.162 156.557 11.174C156.305 11.174 156.071 11.216 155.855 11.3C155.639 11.372 155.453 11.486 155.297 11.642C155.141 11.786 155.015 11.954 154.919 12.146C154.835 12.338 154.793 12.548 154.793 12.776V18.5H153.371C153.035 18.5 152.747 18.5 152.507 18.5C152.267 18.5 152.069 18.5 151.913 18.5ZM167.893 18.68C166.837 18.68 165.919 18.47 165.139 18.05C164.359 17.618 163.753 17.036 163.321 16.304C162.889 15.56 162.673 14.714 162.673 13.766C162.673 13.034 162.793 12.362 163.033 11.75C163.273 11.138 163.609 10.61 164.041 10.166C164.473 9.71 164.983 9.362 165.571 9.122C166.171 8.87 166.825 8.744 167.533 8.744C168.205 8.744 168.817 8.864 169.369 9.104C169.933 9.344 170.419 9.68 170.827 10.112C171.235 10.544 171.547 11.054 171.763 11.642C171.979 12.23 172.075 12.872 172.051 13.568L172.033 14.342H164.419L164.005 12.722H169.693L169.387 13.064V12.704C169.363 12.404 169.267 12.14 169.099 11.912C168.943 11.672 168.733 11.486 168.469 11.354C168.205 11.222 167.905 11.156 167.569 11.156C167.101 11.156 166.699 11.252 166.363 11.444C166.039 11.624 165.793 11.894 165.625 12.254C165.457 12.602 165.373 13.034 165.373 13.55C165.373 14.078 165.481 14.54 165.697 14.936C165.925 15.32 166.249 15.62 166.669 15.836C167.101 16.052 167.611 16.16 168.199 16.16C168.607 16.16 168.967 16.1 169.279 15.98C169.603 15.86 169.951 15.656 170.323 15.368L171.673 17.276C171.301 17.6 170.905 17.864 170.485 18.068C170.065 18.272 169.633 18.422 169.189 18.518C168.757 18.626 168.325 18.68 167.893 18.68ZM178.079 18.68C177.155 18.68 176.327 18.464 175.595 18.032C174.863 17.6 174.281 17.012 173.849 16.268C173.429 15.512 173.219 14.66 173.219 13.712C173.219 12.764 173.429 11.918 173.849 11.174C174.281 10.418 174.863 9.824 175.595 9.392C176.327 8.96 177.155 8.744 178.079 8.744C178.931 8.744 179.711 8.894 180.419 9.194C181.139 9.494 181.709 9.914 182.129 10.454L180.563 12.326C180.395 12.134 180.197 11.954 179.969 11.786C179.741 11.618 179.489 11.486 179.213 11.39C178.937 11.294 178.649 11.246 178.349 11.246C177.893 11.246 177.491 11.354 177.143 11.57C176.795 11.774 176.525 12.062 176.333 12.434C176.141 12.806 176.045 13.232 176.045 13.712C176.045 14.168 176.141 14.582 176.333 14.954C176.537 15.326 176.813 15.62 177.161 15.836C177.509 16.052 177.905 16.16 178.349 16.16C178.661 16.16 178.949 16.124 179.213 16.052C179.477 15.968 179.717 15.848 179.933 15.692C180.161 15.536 180.371 15.344 180.563 15.116L182.111 17.006C181.703 17.522 181.133 17.93 180.401 18.23C179.681 18.53 178.907 18.68 178.079 18.68ZM184.486 18.5V6.53H187.366V18.5H184.486ZM182.794 11.462V8.942H189.22V11.462H182.794Z" fill="#0D171C"/>
<defs>
<clipPath id="clip0_2_6">
<rect width="16" height="16" fill="white" transform="translate(0 4)"/>
</clipPath>
</defs>
</svg>